<?xml version="1.0" encoding="UTF-8"?>
<svg id="Layer_1" xmlns="http://www.w3.org/2000/svg" version="1.1" viewBox="0 0 480 480">
  <!-- Generator: Adobe Illustrator 30.1.0, SVG Export Plug-In . SVG Version: 2.1.1 Build 136)  -->
  <defs>
    <style>
      .st0 {
        fill: #231f20;
      }

      .st1 {
        fill: #f7941d;
      }

      .st2 {
        fill: #fbfcfd;
      }
    </style>
  </defs>
  <circle class="st2" cx="240" cy="240" r="229.73"/>
  <g>
    <path class="st0" d="M113.58,134.02h252.83c4.42,0,8,3.58,8,8v174.91H105.58v-174.91c0-4.42,3.58-8,8-8Z"/>
    <path class="st1" d="M122.14,147.13h237.27c1.35,0,2.44,1.09,2.44,2.44v167.36H118.14v-165.81c0-2.21,1.79-4,4-4Z"/>
    <path class="st0" d="M77.1,316.93h325.79v7.04c0,3.31-2.69,6-6,6H83.1c-3.31,0-6-2.69-6-6v-7.04h0Z"/>
    <path class="st2" d="M226.93,309.83c-.56,0-1.12-.05-1.69-.16-4.88-.93-8.09-5.64-7.16-10.52l26.16-137.65c.93-4.88,5.64-8.09,10.52-7.16,4.88.93,8.09,5.64,7.16,10.52l-26.16,137.65c-.82,4.32-4.59,7.32-8.83,7.32Z"/>
    <g>
      <path class="st2" d="M291.61,212.92l-28.77-17.59,5.18-28.09,38.41,26.37c2.51,1.72,4.4,3.95,5.68,6.71,1.28,2.76,2.15,6.01,2.62,9.76s.4,7.1-.18,10.04c-.58,2.95-1.88,5.56-3.89,7.83l-30.86,34.9-11.82-25.88,23.64-24.05Z"/>
      <path class="st2" d="M188.39,251.08l28.77,17.59-5.18,28.09-38.41-26.37c-2.51-1.72-4.4-3.95-5.68-6.71-1.28-2.76-2.15-6.01-2.62-9.76s-.4-7.1.18-10.04c.58-2.95,1.88-5.56,3.89-7.83l30.86-34.9,11.82,25.88-23.64,24.05Z"/>
    </g>
  </g>
</svg>