<?xml version="1.0" encoding="UTF-8"?>
<svg id="Layer_1" xmlns="http://www.w3.org/2000/svg" version="1.1" viewBox="0 0 480 480">
  <!-- Generator: Adobe Illustrator 30.1.0, SVG Export Plug-In . SVG Version: 2.1.1 Build 136)  -->
  <defs>
    <style>
      .st0 {
        fill: #231f20;
      }

      .st1 {
        fill: #fff;
      }

      .st2 {
        fill: #f7941d;
      }

      .st3 {
        fill: #fbfcfd;
      }
    </style>
  </defs>
  <circle class="st1" cx="240" cy="240" r="229.73"/>
  <g>
    <path class="st0" d="M87.78,115.42h304.43c4.42,0,8,3.58,8,8v210.02H79.78V123.42c0-4.42,3.58-8,8-8Z"/>
    <path class="st2" d="M98.76,131.04h284.05c1.35,0,2.44,1.09,2.44,2.44v199.96H94.76v-198.4c0-2.21,1.79-4,4-4Z"/>
    <path class="st0" d="M45.84,333.44h388.33v9.55c0,3.31-2.69,6-6,6H51.84c-3.31,0-6-2.69-6-6v-9.55h0Z"/>
    <path class="st3" d="M224.42,324.97c-.66,0-1.34-.06-2.01-.19-5.82-1.11-9.64-6.72-8.54-12.54l31.18-164.07c1.11-5.82,6.72-9.64,12.54-8.54,5.82,1.11,9.64,6.72,8.54,12.54l-31.18,164.08c-.98,5.14-5.48,8.73-10.53,8.73Z"/>
    <g>
      <path class="st3" d="M301.52,209.46l-34.29-20.97,6.17-33.48,45.78,31.43c2.99,2.05,5.24,4.71,6.77,8,1.53,3.29,2.57,7.17,3.12,11.63.55,4.47.48,8.46-.21,11.97-.69,3.51-2.24,6.62-4.64,9.33l-36.79,41.6-14.09-30.84,28.18-28.66Z"/>
      <path class="st3" d="M178.48,254.95l34.29,20.97-6.17,33.48-45.78-31.43c-2.99-2.05-5.24-4.71-6.77-8-1.53-3.29-2.57-7.17-3.12-11.63-.55-4.47-.48-8.46.21-11.97.69-3.51,2.24-6.62,4.64-9.33l36.79-41.6,14.09,30.84-28.18,28.66Z"/>
    </g>
  </g>
</svg>