<?xml version="1.0" encoding="UTF-8"?>
<svg id="Layer_1" xmlns="http://www.w3.org/2000/svg" version="1.1" viewBox="0 0 342.82 214.53">
  <!-- Generator: Adobe Illustrator 30.1.0, SVG Export Plug-In . SVG Version: 2.1.1 Build 136)  -->
  <defs>
    <style>
      .st0 {
        fill: #231f20;
      }

      .st1 {
        fill: #6fccdd;
      }
    </style>
  </defs>
  <g>
    <path class="st0" d="M44.99,9.29h252.83c4.42,0,8,3.58,8,8v174.91H36.99V17.29c0-4.42,3.58-8,8-8Z"/>
    <path class="st1" d="M53.56,22.39h237.27c1.35,0,2.44,1.09,2.44,2.44v167.36H49.56V26.39c0-2.21,1.79-4,4-4Z"/>
    <path class="st0" d="M8.51,192.2h325.79v7.04c0,3.31-2.69,6-6,6H14.51c-3.31,0-6-2.69-6-6v-7.04h0Z"/>
    <g>
      <path class="st0" d="M148.76,141.86l-8.5,27.13-34.97-30.86c-2.28-2.01-3.88-4.44-4.82-7.29-.94-2.85-1.4-6.17-1.4-9.95s.47-7.11,1.4-10.01c.94-2.89,2.54-5.34,4.82-7.35l34.97-30.87,8.5,27.25-26.4,20.98,26.4,20.98Z"/>
      <path class="st0" d="M220.46,93.77l-26.4-20.98,8.57-27.25,34.9,30.87c2.28,2.01,3.88,4.46,4.82,7.35.94,2.89,1.4,6.23,1.4,10.01s-.47,7.09-1.4,9.95c-.94,2.85-2.54,5.29-4.82,7.29l-34.9,30.86-8.57-27.13,26.4-20.98Z"/>
    </g>
  </g>
  <path class="st0" d="M158.34,185.09c-.56,0-1.12-.05-1.69-.16-4.88-.93-8.09-5.64-7.16-10.52l26.16-137.65c.93-4.88,5.64-8.09,10.52-7.16,4.88.93,8.09,5.64,7.16,10.52l-26.16,137.65c-.82,4.32-4.59,7.32-8.83,7.32Z"/>
</svg>