<?xml version="1.0" encoding="UTF-8"?>
<svg id="Layer_1" xmlns="http://www.w3.org/2000/svg" version="1.1" viewBox="0 0 250 250">
  <!-- Generator: Adobe Illustrator 30.1.0, SVG Export Plug-In . SVG Version: 2.1.1 Build 136)  -->
  <defs>
    <style>
      .st0 {
        fill: #2c1d11;
      }

      .st1 {
        fill: #efe2ef;
      }

      .st2 {
        fill: #ee2c7b;
        stroke: #231f20;
        stroke-miterlimit: 10;
        stroke-width: .25px;
      }

      .st3 {
        fill: #994562;
      }
    </style>
  </defs>
  <circle class="st1" cx="125.32" cy="125" r="124"/>
  <path class="st2" d="M63.78,27.4c.48.09.96.12,1.44.1"/>
  <g>
    <path class="st0" d="M165.52,189.06s0,0,0,0c-1.74-1.43-3.26-3.01-4.6-4.73-.05-.07-.12-.15-.17-.21-.33-.44-.65-.89-.96-1.35,0,0,0,0,0-.02-1.34-1.95-2.47-4.09-3.43-6.4,0,0-44.18-105.72-44.2-105.76,0,0-1.32-3.84-3.22-7.71-5.77-11.73-18.66-29-34.06,7.04-.11.26-17.69,42.5-17.69,42.5,3.37,0,6.4-2.05,7.66-5.17l6.27-15.55c2.5-6.2,11.25-6.27,13.86-.12l37.62,89.14c7.57,17.76,34.41,24.53,58.05,18.41-5.3-.81-10.64-6.16-15.11-10.07Z"/>
    <path class="st3" d="M209.98,181.07c-7.38,9.18-18.06,15.14-29.49,18.09-5.29-.81-10.64-6.16-15.1-10.07,22.39-13.3,28.94-41.64,12.58-62.16-2.77-3.47-5.85-6.4-9.18-8.81-2.09-1.52-6.09-3.07-10.51-4.44-7.8-2.41-10.48-2.24-19.18-3.04-7.62-.7-31.01,1.92-43.77,7.04-7.44,2.99-14.08,6.42-19.85,9.89-7.13,4.29-13.69,9.49-19.25,15.68-6.2,6.91-11.03,14.63-14.17,22.91,2.33-.93,4.91-1.38,7.6-1.26,9.23.41,16.86,7.82,17.52,17.04.77,10.78-7.75,19.77-18.37,19.77-3.73,0-7.2-1.11-10.11-3.03-5-3.28-8.31-8.95-8.31-15.39,0-.58.02-1.14.08-1.7.02-.15.03-.29.05-.44,4.78-44.47,50.35-80.97,100.97-85.91,1.1-.11,24.74-1.58,40.77,3.63,7.89,2.56,24.45,11.49,33.98,21.22,2.7,2.75,5.22,5.68,7.34,9.12,1.95,3.17,3.46,6.48,4.54,9.87,4.57,14.26,1.59,29.86-8.15,41.98Z"/>
  </g>
</svg>