<?xml version="1.0" encoding="UTF-8"?>
<svg id="Layer_1" xmlns="http://www.w3.org/2000/svg" version="1.1" viewBox="0 0 612 792">
  <!-- Generator: Adobe Illustrator 30.1.0, SVG Export Plug-In . SVG Version: 2.1.1 Build 136)  -->
  <defs>
    <style>
      .st0 {
        fill: #414042;
      }

      .st1 {
        fill: #f597ad;
      }

      .st2 {
        fill: #272b2d;
      }
    </style>
  </defs>
  <path class="st2" d="M179.58,298.02h252.83c4.42,0,8,3.58,8,8v174.91H171.58v-174.91c0-4.42,3.58-8,8-8Z"/>
  <path class="st1" d="M188.14,311.13h237.27c1.35,0,2.44,1.09,2.44,2.44v167.36h-243.71v-165.81c0-2.21,1.79-4,4-4Z"/>
  <path class="st2" d="M143.1,480.93h325.79v7.04c0,3.31-2.69,6-6,6H149.1c-3.31,0-6-2.69-6-6v-7.04h0Z"/>
  <g>
    <path class="st0" d="M294.92,410.52l-8.5,27.13-34.97-30.86c-2.28-2.01-3.88-4.44-4.82-7.29-.94-2.85-1.4-6.17-1.4-9.95s.47-7.11,1.4-10.01c.94-2.89,2.54-5.34,4.82-7.35l34.97-30.87,8.5,27.25-26.4,20.98,26.4,20.98Z"/>
    <path class="st0" d="M343.08,389.54l-26.4-20.98,8.57-27.25,34.9,30.87c2.28,2.01,3.88,4.46,4.82,7.35.94,2.89,1.4,6.23,1.4,10.01s-.47,7.09-1.4,9.95c-.94,2.85-2.54,5.29-4.82,7.29l-34.9,30.86-8.57-27.13,26.4-20.98Z"/>
  </g>
</svg>
